# xmcd CD database file
#
# Track frame offsets:
#	150
#	12001
#	25279
#	37945
#	50250
#	64604
#	74951
#	87120
#	100889
#	113641
#	125200
#	138825
#	153691
#	167697
#	181502
#	195622
#	210086
#	222287
#	236579
#	250645
#	262048
#	275166
#
# Disc length: 3847 seconds
#
# Revision: 3
# Processed by: cddbd v1.5.2PL0 Copyright (c) Steve Scherf et al.
# Submitted via: CDex 1.73
#
DISCID=330f0516
DTITLE=Various Artist - Jazz in the Charts - CD 31/100 (1937) (2)
DYEAR=1937
DGENRE=Jazz
TTITLE0=I Want to Be Happy - Benny Goodman and His Orchestra
TTITLE1=I've Got My Love to Keep Me Warm - Billie Holiday and Her Orchestra
TTITLE2=I'm Sorry I Made You Cry - Fats Waller and His Rhythm
TTITLE3=He Ain't Got Rhythm - Benny Goodman and His Orchestra - Vocals Jimmy Rushing
TTITLE4=This Year's Kisses - Teddy Wilson and His Orchestra - Vocals Billie Holiday
TTITLE5=Please Keep Me in Your dreams - Billie Holiday and Her Orchestra
TTITLE6=Slummin' on Park Avenue - Red Norvo and His Orchestra - Vocals Mildred Bailey
TTITLE7=Trust in Me - Mildred Bailey and Her Orchestra
TTITLE8=Stomping at the Savoy - Benny Goodman and His Orchestra
TTITLE9=You're Laughing at Me - Fats Waller and His Rhythm
TTITLE10=My Last Affair (This Is) - Mildred Bailey and Her Orchestra
TTITLE11=Marie - Tommy Dorsey and His Orchestra - Vocals Jack Leonard
TTITLE12=May I Have The Next Romance with You? - Tommy Dorsey and His Orchestra - Vocals Jack Leonard
TTITLE13=Slumming on Park Avenue - Jimmie Lunceford and His Orchestra
TTITLE14=Song of India - Tommy Dorsey and His Orchestra
TTITLE15=I've Got My Love to Keep Me Warm - Casa Loma Orchestra
TTITLE16=The Mood That I'm In - Lionel Hampton and His Orchestra
TTITLE17=My Last Affair (This Is) - Teddy Wilson and His Orchestra - Vocals Billie Holiday
TTITLE18=After You're Gone - Quintet Of The Hot Club De France - Vocals Freddy Taylor
TTITLE19=Love Is Good for Anything That Ails You - Artie Shaw and His Orchestra
TTITLE20=Rhythm Sundae - Earl Hines and His Orchestra
TTITLE21=The Mood That I'm In - Teddie Wilson and His Orchestra - Vocals Billie Holiday
EXTD=YEAR: 1937
EXTT0=
EXTT1=
EXTT2=
EXTT3=
EXTT4=
EXTT5=
EXTT6=
EXTT7=
EXTT8=
EXTT9=
EXTT10=
EXTT11=
EXTT12=
EXTT13=
EXTT14=
EXTT15=
EXTT16=
EXTT17=
EXTT18=
EXTT19=
EXTT20=
EXTT21=
PLAYORDER=
